Pacifico-Bold.ufo
<glyph name="quotedbl" format="1">
  <advance width="573.972"/>
  <unicode hex="0022"/>
  <outline>
    <contour>
      <point x="348" y="383" type="curve" smooth="yes"/>
      <point x="367" y="381"/>
      <point x="379" y="391"/>
      <point x="387" y="412" type="curve" smooth="yes"/>
      <point x="407" y="463"/>
      <point x="438" y="554"/>
      <point x="454" y="596" type="curve" smooth="yes"/>
      <point x="463" y="621"/>
      <point x="446" y="635"/>
      <point x="427" y="639" type="curve" smooth="yes"/>
      <point x="390" y="647"/>
      <point x="366" y="637"/>
      <point x="361" y="612" type="curve" smooth="yes"/>
      <point x="349" y="553"/>
      <point x="331" y="453"/>
      <point x="325" y="421" type="curve" smooth="yes"/>
      <point x="321" y="399"/>
      <point x="326" y="385"/>
    </contour>
    <contour>
      <point x="204" y="384" type="curve" smooth="yes"/>
      <point x="224" y="382"/>
      <point x="235" y="391"/>
      <point x="241" y="410" type="curve" smooth="yes"/>
      <point x="247" y="429"/>
      <point x="288" y="556"/>
      <point x="300" y="597" type="curve" smooth="yes"/>
      <point x="308" y="625"/>
      <point x="291" y="637"/>
      <point x="268" y="639" type="curve" smooth="yes"/>
      <point x="242" y="641"/>
      <point x="217" y="637"/>
      <point x="211" y="604" type="curve" smooth="yes"/>
      <point x="204" y="565"/>
      <point x="189" y="472"/>
      <point x="183" y="420" type="curve" smooth="yes"/>
      <point x="181" y="400"/>
      <point x="182" y="386"/>
    </contour>
  </outline>
</glyph>
<glyph name="dollar" format="1">
  <advance width="593"/>
  <unicode hex="0024"/>
  <outline>
    <contour>
      <point x="285" y="-78" type="curve" smooth="yes"/>
      <point x="307" y="-78"/>
      <point x="328" y="-73"/>
      <point x="336" y="-50" type="curve"/>
      <point x="344" y="1" type="line"/>
      <point x="444" y="8"/>
      <point x="531" y="61"/>
      <point x="531" y="177" type="curve" smooth="yes"/>
      <point x="531" y="265"/>
      <point x="460" y="306"/>
      <point x="404" y="338" type="curve"/>
      <point x="433" y="504" type="line"/>
      <point x="464" y="497"/>
      <point x="481" y="492"/>
      <point x="485" y="465" type="curve" smooth="yes"/>
      <point x="494" y="397"/>
      <point x="594" y="395"/>
      <point x="585" y="463" type="curve" smooth="yes"/>
      <point x="575" y="542"/>
      <point x="510" y="576"/>
      <point x="448" y="590" type="curve"/>
      <point x="452" y="617" type="line"/>
      <point x="456" y="637"/>
      <point x="456" y="679"/>
      <point x="427" y="679" type="curve" smooth="yes"/>
      <point x="397" y="679"/>
      <point x="376" y="660"/>
      <point x="373" y="636" type="curve" smooth="yes"/>
      <point x="367" y="597" type="line"/>
      <point x="267" y="591"/>
      <point x="153" y="535"/>
      <point x="153" y="433" type="curve" smooth="yes"/>
      <point x="153" y="347"/>
      <point x="252" y="319"/>
      <point x="309" y="290" type="curve"/>
      <point x="275" y="90" type="line"/>
      <point x="239" y="95"/>
      <point x="185" y="102"/>
      <point x="185" y="149" type="curve" smooth="yes"/>
      <point x="185" y="183"/>
      <point x="193" y="203"/>
      <point x="225" y="203" type="curve" smooth="yes"/>
      <point x="245" y="203"/>
      <point x="258" y="216"/>
      <point x="258" y="234" type="curve" smooth="yes"/>
      <point x="258" y="260"/>
      <point x="237" y="276"/>
      <point x="213" y="276" type="curve" smooth="yes"/>
      <point x="134" y="276"/>
      <point x="84" y="224"/>
      <point x="84" y="148" type="curve" smooth="yes"/>
      <point x="84" y="47"/>
      <point x="168" y="10"/>
      <point x="258" y="1" type="curve"/>
      <point x="252" y="-30"/>
      <point x="248" y="-78"/>
    </contour>
    <contour>
      <point x="328" y="384" type="curve"/>
      <point x="307" y="397"/>
      <point x="271" y="417"/>
      <point x="271" y="449" type="curve" smooth="yes"/>
      <point x="271" y="489"/>
      <point x="323" y="501"/>
      <point x="350" y="506" type="curve"/>
      <point x="343" y="461"/>
      <point x="336" y="426"/>
    </contour>
    <contour>
      <point x="363" y="99" type="curve"/>
      <point x="388" y="244" type="line"/>
      <point x="409" y="232"/>
      <point x="430" y="212"/>
      <point x="430" y="177" type="curve" smooth="yes"/>
      <point x="430" y="128"/>
      <point x="398" y="110"/>
    </contour>
  </outline>
</glyph>
<glyph name="ampersand" format="1">
  <advance width="521"/>
  <unicode hex="0026"/>
  <outline>
    <contour>
      <point x="468" y="-82" type="curve" smooth="yes"/>
      <point x="519" y="-82"/>
      <point x="552" y="-57"/>
      <point x="552" y="-40" type="curve" smooth="yes"/>
      <point x="552" y="-13"/>
      <point x="493" y="0"/>
      <point x="469" y="17" type="curve" smooth="yes"/>
      <point x="456" y="28"/>
      <point x="434" y="48"/>
      <point x="405" y="75" type="curve"/>
      <point x="461" y="106"/>
      <point x="511" y="140"/>
      <point x="511" y="197" type="curve" smooth="yes"/>
      <point x="511" y="238"/>
      <point x="423" y="248"/>
      <point x="429" y="222" type="curve" smooth="yes"/>
      <point x="429" y="177"/>
      <point x="408" y="157"/>
      <point x="364" y="137" type="curve"/>
      <point x="334" y="180"/>
      <point x="294" y="240"/>
      <point x="266" y="293" type="curve"/>
      <point x="322" y="327"/>
      <point x="386" y="373"/>
      <point x="386" y="456" type="curve" smooth="yes"/>
      <point x="386" y="522"/>
      <point x="335" y="563"/>
      <point x="267" y="563" type="curve" smooth="yes"/>
      <point x="186" y="563"/>
      <point x="116" y="500"/>
      <point x="116" y="417" type="curve" smooth="yes"/>
      <point x="116" y="369"/>
      <point x="142" y="316"/>
      <point x="160" y="282" type="curve"/>
      <point x="100" y="250"/>
      <point x="17" y="203"/>
      <point x="17" y="114" type="curve" smooth="yes"/>
      <point x="17" y="25"/>
      <point x="102" y="0"/>
      <point x="191" y="0" type="curve" smooth="yes"/>
      <point x="246" y="0"/>
      <point x="288" y="10"/>
      <point x="327" y="28" type="curve"/>
      <point x="320" y="33"/>
      <point x="337" y="4"/>
      <point x="399" y="-60" type="curve" smooth="yes"/>
      <point x="419" y="-78"/>
      <point x="447" y="-82"/>
    </contour>
    <contour>
      <point x="193" y="79" type="curve" smooth="yes"/>
      <point x="149" y="79"/>
      <point x="115" y="85"/>
      <point x="115" y="125" type="curve" smooth="yes"/>
      <point x="115" y="176"/>
      <point x="148" y="218"/>
      <point x="181" y="243" type="curve"/>
      <point x="211" y="189"/>
      <point x="240" y="142"/>
      <point x="279" y="93" type="curve"/>
      <point x="254" y="85"/>
      <point x="225" y="79"/>
    </contour>
    <contour>
      <point x="248" y="337" type="curve"/>
      <point x="234" y="365"/>
      <point x="220" y="398"/>
      <point x="220" y="423" type="curve" smooth="yes"/>
      <point x="220" y="457"/>
      <point x="235" y="481"/>
      <point x="271" y="481" type="curve" smooth="yes"/>
      <point x="298" y="481"/>
      <point x="314" y="473"/>
      <point x="314" y="449" type="curve" smooth="yes"/>
      <point x="314" y="399"/>
      <point x="280" y="372"/>
    </contour>
  </outline>
</glyph>
<glyph name="comma" format="1">
  <advance width="290"/>
  <unicode hex="002C"/>
  <outline>
    <contour>
      <point x="111" y="-95" type="curve" smooth="yes"/>
      <point x="165" y="-61"/>
      <point x="217" y="-6"/>
      <point x="217" y="58" type="curve" smooth="yes"/>
      <point x="217" y="93"/>
      <point x="202" y="115"/>
      <point x="165" y="114" type="curve" smooth="yes"/>
      <point x="133" y="113"/>
      <point x="121" y="93"/>
      <point x="119" y="72" type="curve" smooth="yes"/>
      <point x="111" y="8"/>
      <point x="106" y="-12"/>
      <point x="75" y="-65" type="curve" smooth="yes"/>
      <point x="63" y="-85"/>
      <point x="94" y="-105"/>
    </contour>
  </outline>
</glyph>
<glyph name="two" format="1">
  <advance width="417"/>
  <unicode hex="0032"/>
  <outline>
    <contour>
      <point x="170" y="-26"/>
      <point x="250" y="42" type="curve"/>
      <point x="274" y="24"/>
      <point x="305" y="0"/>
      <point x="344" y="0" type="curve" smooth="yes"/>
      <point x="393" y="0"/>
      <point x="410" y="51"/>
      <point x="410" y="83" type="curve" smooth="yes"/>
      <point x="410" y="103"/>
      <point x="411" y="112"/>
      <point x="397" y="113" type="curve" smooth="yes"/>
      <point x="381" y="114"/>
      <point x="375" y="96"/>
      <point x="359" y="88" type="curve" smooth="yes"/>
      <point x="349" y="83"/>
      <point x="331" y="85"/>
      <point x="309" y="102" type="curve"/>
      <point x="450" y="261"/>
      <point x="435" y="513"/>
      <point x="224" y="501" type="curve" smooth="yes"/>
      <point x="125" y="495"/>
      <point x="59" y="444"/>
      <point x="59" y="339" type="curve" smooth="yes"/>
      <point x="59" y="293"/>
      <point x="69" y="254"/>
      <point x="117" y="260" type="curve" smooth="yes"/>
      <point x="205" y="271"/>
      <point x="99" y="409"/>
      <point x="228" y="425" type="curve" smooth="yes"/>
      <point x="336" y="438"/>
      <point x="331" y="233"/>
      <point x="242" y="151" type="curve"/>
      <point x="209" y="174"/>
      <point x="177" y="186"/>
      <point x="133" y="186" type="curve" smooth="yes"/>
      <point x="81" y="186"/>
      <point x="46" y="154"/>
      <point x="46" y="100" type="curve" smooth="yes"/>
      <point x="46" y="-9"/>
    </contour>
    <contour>
      <point x="114" y="65"/>
      <point x="114" y="96" type="curve" smooth="yes"/>
      <point x="114" y="116"/>
      <point x="137" y="136"/>
      <point x="207" y="102" type="curve"/>
      <point x="158" y="60"/>
    </contour>
  </outline>
</glyph>
<glyph name="four" format="1">
  <advance width="417"/>
  <unicode hex="0034"/>
  <outline>
    <contour>
      <point x="254" y="-21" type="curve" smooth="yes"/>
      <point x="280" y="-21"/>
      <point x="295" y="-18"/>
      <point x="307" y="32" type="curve" smooth="yes"/>
      <point x="315" y="61" type="line"/>
      <point x="304" y="61"/>
      <point x="380" y="63"/>
      <point x="367" y="63" type="curve"/>
      <point x="413" y="64"/>
      <point x="420" y="143"/>
      <point x="380" y="142" type="curve" smooth="yes"/>
      <point x="386" y="142"/>
      <point x="298" y="143"/>
      <point x="333" y="143" type="curve"/>
      <point x="341" y="180"/>
      <point x="363" y="265"/>
      <point x="369" y="289" type="curve" smooth="yes"/>
      <point x="374" y="311"/>
      <point x="351" y="316"/>
      <point x="333" y="316" type="curve" smooth="yes"/>
      <point x="305" y="316"/>
      <point x="290" y="302"/>
      <point x="282" y="277" type="curve" smooth="yes"/>
      <point x="275" y="254"/>
      <point x="249" y="166"/>
      <point x="242" y="138" type="curve"/>
      <point x="257" y="149"/>
      <point x="161" y="143"/>
      <point x="167" y="143" type="curve"/>
      <point x="204" y="261"/>
      <point x="233" y="357"/>
      <point x="257" y="440" type="curve" smooth="yes"/>
      <point x="270" y="484"/>
      <point x="185" y="492"/>
      <point x="174" y="455" type="curve" smooth="yes"/>
      <point x="148" y="378"/>
      <point x="91" y="210"/>
      <point x="69" y="132" type="curve" smooth="yes"/>
      <point x="53" y="77"/>
      <point x="68" y="61"/>
      <point x="100" y="61" type="curve" smooth="yes"/>
      <point x="70" y="61"/>
      <point x="261" y="60"/>
      <point x="225" y="60" type="curve"/>
      <point x="218" y="30" type="line"/>
      <point x="213" y="1"/>
      <point x="212" y="-20"/>
    </contour>
  </outline>
</glyph>
<glyph name="six" format="1">
  <advance width="387"/>
  <unicode hex="0036"/>
  <outline>
    <contour>
      <point x="201" y="-12" type="curve" smooth="yes"/>
      <point x="315" y="-26"/>
      <point x="393" y="52"/>
      <point x="388" y="164" type="curve" smooth="yes"/>
      <point x="382" y="304"/>
      <point x="228" y="365"/>
      <point x="159" y="282" type="curve"/>
      <point x="201" y="372"/>
      <point x="271" y="400"/>
      <point x="333" y="429" type="curve" smooth="yes"/>
      <point x="350" y="436"/>
      <point x="360" y="453"/>
      <point x="360" y="472" type="curve" smooth="yes"/>
      <point x="360" y="494"/>
      <point x="347" y="505"/>
      <point x="321" y="505" type="curve" smooth="yes"/>
      <point x="308" y="505"/>
      <point x="299" y="501"/>
      <point x="289" y="496" type="curve" smooth="yes"/>
      <point x="168" y="437"/>
      <point x="50" y="348"/>
      <point x="54" y="168" type="curve" smooth="yes"/>
      <point x="56" y="47"/>
      <point x="121" y="0"/>
    </contour>
    <contour>
      <point x="208" y="75" type="curve" smooth="yes"/>
      <point x="166" y="85"/>
      <point x="146" y="127"/>
      <point x="146" y="150" type="curve" smooth="yes"/>
      <point x="144" y="208"/>
      <point x="177" y="235"/>
      <point x="231" y="235" type="curve" smooth="yes"/>
      <point x="316" y="235"/>
      <point x="320" y="48"/>
    </contour>
  </outline>
</glyph>
<glyph name="seven" format="1">
  <advance width="417"/>
  <unicode hex="0037"/>
  <outline>
    <contour>
      <point x="248" y="23" type="curve" smooth="yes"/>
      <point x="274" y="112"/>
      <point x="337" y="240"/>
      <point x="413" y="362" type="curve"/>
      <point x="415" y="369"/>
      <point x="446" y="399"/>
      <point x="446" y="429" type="curve" smooth="yes"/>
      <point x="446" y="448"/>
      <point x="439" y="467"/>
      <point x="416" y="467" type="curve" smooth="yes"/>
      <point x="408" y="467"/>
      <point x="376" y="462"/>
      <point x="362" y="462" type="curve" smooth="yes"/>
      <point x="268" y="462"/>
      <point x="206" y="462"/>
      <point x="141" y="462" type="curve" smooth="yes"/>
      <point x="115" y="462"/>
      <point x="94" y="358"/>
      <point x="168" y="372" type="curve" smooth="yes"/>
      <point x="198" y="378"/>
      <point x="246" y="385"/>
      <point x="283" y="388" type="curve" smooth="yes"/>
      <point x="331" y="391" type="line"/>
      <point x="237" y="248"/>
      <point x="185" y="125"/>
      <point x="152" y="46" type="curve" smooth="yes"/>
      <point x="134" y="-7"/>
      <point x="228" y="-43"/>
    </contour>
  </outline>
</glyph>
<glyph name="nine" format="1">
  <advance width="417"/>
  <unicode hex="0039"/>
  <outline>
    <contour>
      <point x="242" y="382" type="curve" smooth="yes"/>
      <point x="127" y="397"/>
      <point x="52" y="320"/>
      <point x="57" y="209" type="curve" smooth="yes"/>
      <point x="62" y="66"/>
      <point x="216" y="6"/>
      <point x="284" y="89" type="curve"/>
      <point x="242" y="-1"/>
      <point x="173" y="-29"/>
      <point x="110" y="-59" type="curve" smooth="yes"/>
      <point x="93" y="-66"/>
      <point x="85" y="-83"/>
      <point x="85" y="-101" type="curve" smooth="yes"/>
      <point x="85" y="-123"/>
      <point x="96" y="-135"/>
      <point x="122" y="-135" type="curve" smooth="yes"/>
      <point x="134" y="-135"/>
      <point x="144" y="-129"/>
      <point x="154" y="-124" type="curve" smooth="yes"/>
      <point x="277" y="-66"/>
      <point x="394" y="23"/>
      <point x="389" y="203" type="curve" smooth="yes"/>
      <point x="386" y="324"/>
      <point x="323" y="373"/>
    </contour>
    <contour>
      <point x="235" y="296" type="curve" smooth="yes"/>
      <point x="278" y="286"/>
      <point x="297" y="244"/>
      <point x="297" y="220" type="curve" smooth="yes"/>
      <point x="299" y="164"/>
      <point x="267" y="137"/>
      <point x="212" y="137" type="curve" smooth="yes"/>
      <point x="127" y="137"/>
      <point x="123" y="323"/>
    </contour>
  </outline>
</glyph>
<glyph name="equal" format="1">
  <advance width="583"/>
  <unicode hex="003D"/>
  <outline>
    <contour>
      <point x="177" y="92" type="curve" smooth="yes"/>
      <point x="448" y="92" type="line"/>
      <point x="518" y="92"/>
      <point x="560" y="104"/>
      <point x="560" y="154" type="curve" smooth="yes"/>
      <point x="560" y="175"/>
      <point x="544" y="181"/>
      <point x="526" y="181" type="curve" smooth="yes"/>
      <point x="413" y="181" type="line"/>
      <point x="374" y="181"/>
      <point x="294" y="177"/>
      <point x="202" y="181" type="curve" smooth="yes"/>
      <point x="163" y="184"/>
      <point x="113" y="178"/>
      <point x="113" y="142" type="curve" smooth="yes"/>
      <point x="113" y="104"/>
      <point x="137" y="92"/>
    </contour>
    <contour>
      <point x="173" y="224" type="curve" smooth="yes"/>
      <point x="478" y="229" type="line"/>
      <point x="526" y="228"/>
      <point x="568" y="240"/>
      <point x="568" y="280" type="curve" smooth="yes"/>
      <point x="568" y="311"/>
      <point x="556" y="318"/>
      <point x="542" y="322" type="curve" smooth="yes"/>
      <point x="480" y="335"/>
      <point x="417" y="314"/>
      <point x="299" y="317" type="curve" smooth="yes"/>
      <point x="210" y="319" type="line"/>
      <point x="172" y="320"/>
      <point x="121" y="315"/>
      <point x="121" y="270" type="curve" smooth="yes"/>
      <point x="121" y="241"/>
      <point x="145" y="222"/>
    </contour>
  </outline>
</glyph>
<glyph name="question" format="1">
  <advance width="350"/>
  <unicode hex="003F"/>
  <outline>
    <contour>
      <point x="191" y="250" type="curve" smooth="yes"/>
      <point x="191" y="241"/>
      <point x="193" y="229"/>
      <point x="211" y="227" type="curve" smooth="yes"/>
      <point x="230" y="225"/>
      <point x="235" y="237"/>
      <point x="243" y="255" type="curve" smooth="yes"/>
      <point x="273" y="326"/>
      <point x="423" y="324"/>
      <point x="430" y="483" type="curve" smooth="yes"/>
      <point x="433" y="585"/>
      <point x="352" y="634"/>
      <point x="269" y="638" type="curve" smooth="yes"/>
      <point x="213" y="641"/>
      <point x="104" y="621"/>
      <point x="78" y="509" type="curve" smooth="yes"/>
      <point x="69" y="470"/>
      <point x="135" y="452"/>
      <point x="146" y="477" type="curve" smooth="yes"/>
      <point x="170" y="531"/>
      <point x="214" y="549"/>
      <point x="256" y="547" type="curve" smooth="yes"/>
      <point x="295" y="545"/>
      <point x="333" y="525"/>
      <point x="329" y="470" type="curve" smooth="yes"/>
      <point x="321" y="360"/>
      <point x="193" y="349"/>
    </contour>
    <contour>
      <point x="186" y="-10" type="curve" smooth="yes"/>
      <point x="230" y="-10"/>
      <point x="256" y="19"/>
      <point x="256" y="61" type="curve" smooth="yes"/>
      <point x="256" y="102"/>
      <point x="233" y="124"/>
      <point x="193" y="124" type="curve" smooth="yes"/>
      <point x="148" y="124"/>
      <point x="124" y="93"/>
      <point x="124" y="51" type="curve" smooth="yes"/>
      <point x="124" y="12"/>
      <point x="147" y="-10"/>
    </contour>
  </outline>
</glyph>
<glyph name="at" format="1">
  <advance width="766"/>
  <unicode hex="0040"/>
  <outline>
    <contour>
      <point x="333" y="-145" type="curve" smooth="yes"/>
      <point x="432" y="-145"/>
      <point x="540" y="-119"/>
      <point x="617" y="-75" type="curve" smooth="yes"/>
      <point x="658" y="-51"/>
      <point x="628" y="14"/>
      <point x="585" y="-11" type="curve" smooth="yes"/>
      <point x="509" y="-56"/>
      <point x="423" y="-73"/>
      <point x="343" y="-73" type="curve" smooth="yes"/>
      <point x="168" y="-73"/>
      <point x="113" y="19"/>
      <point x="113" y="121" type="curve" smooth="yes"/>
      <point x="113" y="302"/>
      <point x="258" y="478"/>
      <point x="462" y="478" type="curve" smooth="yes"/>
      <point x="594" y="478"/>
      <point x="661" y="413"/>
      <point x="661" y="287" type="curve" smooth="yes"/>
      <point x="661" y="215"/>
      <point x="606" y="75"/>
      <point x="535" y="85" type="curve" smooth="yes"/>
      <point x="523" y="87"/>
      <point x="516" y="96"/>
      <point x="523" y="126" type="curve" smooth="yes"/>
      <point x="579" y="347" type="line"/>
      <point x="590" y="390"/>
      <point x="577" y="410"/>
      <point x="541" y="409" type="curve" smooth="yes"/>
      <point x="521" y="409" type="line"/>
      <point x="529" y="426"/>
      <point x="514" y="426"/>
      <point x="505" y="426" type="curve" smooth="yes"/>
      <point x="367" y="426"/>
      <point x="199" y="298"/>
      <point x="199" y="125" type="curve" smooth="yes"/>
      <point x="199" y="52"/>
      <point x="253" y="7"/>
      <point x="323" y="5" type="curve" smooth="yes"/>
      <point x="382" y="3"/>
      <point x="422" y="28"/>
      <point x="459" y="76" type="curve"/>
      <point x="466" y="47"/>
      <point x="487" y="31"/>
      <point x="514" y="24" type="curve" smooth="yes"/>
      <point x="619" y="0"/>
      <point x="731" y="123"/>
      <point x="731" y="294" type="curve" smooth="yes"/>
      <point x="731" y="456"/>
      <point x="631" y="547"/>
      <point x="462" y="547" type="curve" smooth="yes"/>
      <point x="249" y="547"/>
      <point x="33" y="362"/>
      <point x="33" y="123" type="curve" smooth="yes"/>
      <point x="33" y="-17"/>
      <point x="117" y="-145"/>
    </contour>
    <contour>
      <point x="340" y="73" type="curve" smooth="yes"/>
      <point x="285" y="67"/>
      <point x="273" y="99"/>
      <point x="273" y="128" type="curve" smooth="yes"/>
      <point x="273" y="263"/>
      <point x="387" y="363"/>
      <point x="503" y="351" type="curve"/>
      <point x="457" y="195" type="line"/>
      <point x="444" y="148"/>
      <point x="405" y="81"/>
    </contour>
  </outline>
</glyph>
<glyph name="A" format="1">
  <advance width="706"/>
  <unicode hex="0041"/>
  <outline>
    <contour>
      <point x="292" y="-71" type="curve" smooth="yes"/>
      <point x="414" y="-63"/>
      <point x="502" y="54"/>
      <point x="493" y="94" type="curve"/>
      <point x="493" y="94"/>
      <point x="483" y="57"/>
      <point x="486" y="18" type="curve" smooth="yes"/>
      <point x="489" y="-18"/>
      <point x="508" y="-51"/>
      <point x="551" y="-63" type="curve" smooth="yes"/>
      <point x="603" y="-77"/>
      <point x="676" y="-49"/>
      <point x="710" y="-11" type="curve" smooth="yes"/>
      <point x="717" y="-3"/>
      <point x="719" y="7"/>
      <point x="719" y="14" type="curve" smooth="yes"/>
      <point x="719" y="38"/>
      <point x="701" y="55"/>
      <point x="682" y="55" type="curve" smooth="yes"/>
      <point x="673" y="55"/>
      <point x="667" y="52"/>
      <point x="660" y="46" type="curve" smooth="yes"/>
      <point x="640" y="29"/>
      <point x="613" y="13"/>
      <point x="593" y="22" type="curve" smooth="yes"/>
      <point x="569" y="33"/>
      <point x="564" y="64"/>
      <point x="587" y="164" type="curve" smooth="yes"/>
      <point x="660" y="477" type="line" smooth="yes"/>
      <point x="668" y="511"/>
      <point x="655" y="532"/>
      <point x="605" y="530" type="curve" smooth="yes"/>
      <point x="583" y="529"/>
      <point x="567" y="522"/>
      <point x="562" y="501" type="curve" smooth="yes"/>
      <point x="485" y="207" type="line" smooth="yes"/>
      <point x="458" y="103"/>
      <point x="404" y="29"/>
      <point x="306" y="25" type="curve" smooth="yes"/>
      <point x="35" y="13"/>
      <point x="157" y="622"/>
      <point x="532" y="620" type="curve" smooth="yes"/>
      <point x="597" y="620"/>
      <point x="662" y="599"/>
      <point x="721" y="557" type="curve"/>
      <point x="729" y="550"/>
      <point x="739" y="548"/>
      <point x="747" y="548" type="curve" smooth="yes"/>
      <point x="769" y="548"/>
      <point x="786" y="567"/>
      <point x="786" y="591" type="curve" smooth="yes"/>
      <point x="786" y="600"/>
      <point x="784" y="615"/>
      <point x="771" y="625" type="curve" smooth="yes"/>
      <point x="533" y="838"/>
      <point x="78" y="650"/>
      <point x="55" y="197" type="curve" smooth="yes"/>
      <point x="45" y="-4"/>
      <point x="155" y="-80"/>
    </contour>
    <contour>
      <point x="545" y="-56" type="move" name="ogonek"/>
    </contour>
  </outline>
</glyph>
<glyph name="F" format="1">
  <advance width="565"/>
  <unicode hex="0046"/>
  <outline>
    <contour>
      <point x="123" y="-66" type="curve" smooth="yes"/>
      <point x="308" y="-72"/>
      <point x="353" y="71"/>
      <point x="407" y="248" type="curve"/>
      <point x="442" y="248"/>
      <point x="501" y="251"/>
      <point x="543" y="255" type="curve" smooth="yes"/>
      <point x="561" y="257"/>
      <point x="567" y="274"/>
      <point x="567" y="295" type="curve" smooth="yes"/>
      <point x="567" y="321"/>
      <point x="558" y="337"/>
      <point x="539" y="337" type="curve" smooth="yes"/>
      <point x="527" y="337"/>
      <point x="440" y="336"/>
      <point x="425" y="336" type="curve"/>
      <point x="451" y="421"/>
      <point x="477" y="548"/>
      <point x="480" y="612" type="curve"/>
      <point x="593" y="618"/>
      <point x="739" y="605"/>
      <point x="789" y="597" type="curve" smooth="yes"/>
      <point x="809" y="594"/>
      <point x="815" y="625"/>
      <point x="817" y="646" type="curve" smooth="yes"/>
      <point x="821" y="698"/>
      <point x="731" y="716"/>
      <point x="507" y="708" type="curve" smooth="yes"/>
      <point x="-1" y="689"/>
      <point x="-9" y="345"/>
      <point x="59" y="280" type="curve" smooth="yes"/>
      <point x="86" y="238"/>
      <point x="201" y="250"/>
      <point x="181" y="270" type="curve" smooth="yes"/>
      <point x="109" y="338"/>
      <point x="115" y="567"/>
      <point x="396" y="604" type="curve"/>
      <point x="389" y="585"/>
      <point x="344" y="402"/>
      <point x="324" y="333" type="curve"/>
      <point x="286" y="332"/>
      <point x="246" y="326"/>
      <point x="246" y="286" type="curve" smooth="yes"/>
      <point x="247" y="260"/>
      <point x="260" y="248"/>
      <point x="286" y="248" type="curve"/>
      <point x="304" y="248" type="line"/>
      <point x="254" y="85"/>
      <point x="196" y="47"/>
      <point x="141" y="46" type="curve" smooth="yes"/>
      <point x="102" y="45"/>
      <point x="68" y="65"/>
      <point x="49" y="80" type="curve" smooth="yes"/>
      <point x="19" y="104"/>
      <point x="-38" y="29"/>
      <point x="-13" y="-1" type="curve" smooth="yes"/>
      <point x="15" y="-34"/>
      <point x="72" y="-64"/>
    </contour>
  </outline>
</glyph>
<glyph name="Q" format="1">
  <advance width="736"/>
  <unicode hex="0051"/>
  <outline>
    <contour>
      <point x="980" y="-380" type="curve" smooth="yes"/>
      <point x="1050" y="-328"/>
      <point x="1066" y="-287"/>
      <point x="1068" y="-277" type="curve" smooth="yes"/>
      <point x="1070" y="-266"/>
      <point x="1067" y="-258"/>
      <point x="1059" y="-249" type="curve" smooth="yes"/>
      <point x="1039" y="-227"/>
      <point x="1008" y="-228"/>
      <point x="995" y="-244" type="curve" smooth="yes"/>
      <point x="990" y="-250" type="line" smooth="yes"/>
      <point x="977" y="-266"/>
      <point x="962" y="-284"/>
      <point x="948" y="-294" type="curve" smooth="yes"/>
      <point x="891" y="-336"/>
      <point x="722" y="-256"/>
      <point x="413" y="2" type="curve" smooth="yes"/>
      <point x="391" y="17"/>
      <point x="333" y="-42"/>
      <point x="355" y="-57" type="curve" smooth="yes"/>
      <point x="647" y="-292"/>
      <point x="848" y="-477"/>
    </contour>
    <component base="O"/>
  </outline>
</glyph>
<glyph name="X" format="1">
  <advance width="589"/>
  <unicode hex="0058"/>
  <outline>
    <contour>
      <point x="-13" y="-97" type="curve" smooth="yes"/>
      <point x="59" y="-97"/>
      <point x="111" y="-89"/>
      <point x="224" y="58" type="curve" smooth="yes"/>
      <point x="355" y="225"/>
      <point x="480" y="381"/>
      <point x="594" y="498" type="curve" smooth="yes"/>
      <point x="692" y="597"/>
      <point x="596" y="642"/>
      <point x="546" y="584" type="curve"/>
      <point x="437" y="434"/>
      <point x="295" y="253"/>
      <point x="193" y="130" type="curve" smooth="yes"/>
      <point x="115" y="38"/>
      <point x="60" y="10"/>
      <point x="-21" y="10" type="curve" smooth="yes"/>
      <point x="-70" y="10"/>
      <point x="-73" y="-97"/>
    </contour>
    <contour>
      <point x="10" y="413" type="curve" smooth="yes"/>
      <point x="129" y="526"/>
      <point x="140" y="501"/>
      <point x="166" y="437" type="curve" smooth="yes"/>
      <point x="343" y="9" type="line"/>
      <point x="402" y="-130"/>
      <point x="470" y="-117"/>
      <point x="564" y="-24" type="curve" smooth="yes"/>
      <point x="674" y="83" type="line"/>
      <point x="699" y="110"/>
      <point x="654" y="145"/>
      <point x="641" y="132" type="curve" smooth="yes"/>
      <point x="531" y="30" type="line"/>
      <point x="482" y="-17"/>
      <point x="464" y="30"/>
      <point x="445" y="77" type="curve" smooth="yes"/>
      <point x="295" y="484" type="line"/>
      <point x="251" y="599"/>
      <point x="129" y="625"/>
      <point x="-26" y="466" type="curve" smooth="yes"/>
      <point x="-60" y="431"/>
      <point x="-14" y="390"/>
    </contour>
  </outline>
</glyph>
<glyph name="i" format="1">
  <advance width="205"/>
  <unicode hex="0069"/>
  <outline>
    <contour>
      <point x="129" y="-3" type="curve" smooth="yes"/>
      <point x="182" y="-9"/>
      <point x="251" y="19"/>
      <point x="306" y="85" type="curve" smooth="yes"/>
      <point x="313" y="94"/>
      <point x="319" y="99"/>
      <point x="319" y="107" type="curve" smooth="yes"/>
      <point x="320" y="135"/>
      <point x="301" y="149"/>
      <point x="281" y="149" type="curve" smooth="yes"/>
      <point x="272" y="149"/>
      <point x="264" y="145"/>
      <point x="258" y="137" type="curve" smooth="yes"/>
      <point x="184" y="52"/>
      <point x="136" y="55"/>
      <point x="133" y="112" type="curve" smooth="yes"/>
      <point x="130" y="169"/>
      <point x="157" y="236"/>
      <point x="181" y="282" type="curve" smooth="yes"/>
      <point x="193" y="305"/>
      <point x="182" y="326"/>
      <point x="150" y="330" type="curve" smooth="yes"/>
      <point x="125" y="333"/>
      <point x="104" y="325"/>
      <point x="87" y="296" type="curve" smooth="yes"/>
      <point x="57" y="245"/>
      <point x="34" y="155"/>
      <point x="40" y="97" type="curve" smooth="yes"/>
      <point x="46" y="39"/>
      <point x="82" y="2"/>
    </contour>
    <contour>
      <point x="208" y="382" type="curve" smooth="yes"/>
      <point x="248" y="379"/>
      <point x="278" y="400"/>
      <point x="279" y="439" type="curve" smooth="yes"/>
      <point x="280" y="483"/>
      <point x="256" y="498"/>
      <point x="224" y="500" type="curve" smooth="yes"/>
      <point x="185" y="503"/>
      <point x="150" y="478"/>
      <point x="150" y="438" type="curve" smooth="yes"/>
      <point x="150" y="402"/>
      <point x="169" y="385"/>
    </contour>
    <contour>
      <point x="0" y="0" type="move" name="ogonek"/>
    </contour>
  </outline>
</glyph>
<glyph name="j" format="1">
  <advance width="217"/>
  <unicode hex="006A"/>
  <outline>
    <contour>
      <point x="80" y="-208" type="curve" smooth="yes"/>
      <point x="183" y="-222"/>
      <point x="207" y="-119"/>
      <point x="208" y="-1" type="curve" smooth="yes"/>
      <point x="209" y="42"/>
      <point x="200" y="106"/>
      <point x="197" y="129" type="curve"/>
      <point x="249" y="127"/>
      <point x="343" y="144"/>
      <point x="343" y="215" type="curve" smooth="yes"/>
      <point x="343" y="234"/>
      <point x="334" y="248"/>
      <point x="316" y="239" type="curve"/>
      <point x="239" y="208"/>
      <point x="206" y="213"/>
      <point x="147" y="194" type="curve"/>
      <point x="164" y="233" type="line"/>
      <point x="172" y="250"/>
      <point x="184" y="277"/>
      <point x="186" y="300" type="curve" smooth="yes"/>
      <point x="187" y="315"/>
      <point x="179" y="329"/>
      <point x="160" y="329" type="curve" smooth="yes"/>
      <point x="101" y="329"/>
      <point x="87" y="314"/>
      <point x="71" y="277" type="curve" smooth="yes"/>
      <point x="38" y="198"/>
      <point x="15" y="96"/>
      <point x="5" y="1" type="curve" smooth="yes"/>
      <point x="-4" y="-86"/>
      <point x="-16" y="-195"/>
    </contour>
    <contour>
      <point x="137" y="-31" type="curve" smooth="yes"/>
      <point x="135" y="-95"/>
      <point x="125" y="-144"/>
      <point x="99" y="-137" type="curve" smooth="yes"/>
      <point x="89" y="-134"/>
      <point x="85" y="-118"/>
      <point x="85" y="-93" type="curve" smooth="yes"/>
      <point x="84" y="-31"/>
      <point x="109" y="81"/>
      <point x="131" y="152" type="curve"/>
      <point x="135" y="101"/>
      <point x="140" y="29"/>
    </contour>
    <contour>
      <point x="182" y="388" type="curve" smooth="yes"/>
      <point x="219" y="388"/>
      <point x="243" y="411"/>
      <point x="243" y="447" type="curve" smooth="yes"/>
      <point x="243" y="481"/>
      <point x="220" y="496"/>
      <point x="190" y="496" type="curve" smooth="yes"/>
      <point x="154" y="496"/>
      <point x="125" y="475"/>
      <point x="125" y="438" type="curve" smooth="yes"/>
      <point x="125" y="406"/>
      <point x="147" y="388"/>
    </contour>
  </outline>
</glyph>
<glyph name="p" format="1">
  <advance width="365"/>
  <unicode hex="0070"/>
  <outline>
    <contour>
      <point x="304" y="128" type="curve" smooth="yes"/>
      <point x="371" y="134"/>
      <point x="485" y="217"/>
      <point x="523" y="262" type="curve"/>
      <point x="532" y="266"/>
      <point x="535" y="274"/>
      <point x="536" y="281" type="curve" smooth="yes"/>
      <point x="536" y="298"/>
      <point x="526" y="314"/>
      <point x="511" y="317" type="curve" smooth="yes"/>
      <point x="508" y="318"/>
      <point x="509" y="321"/>
      <point x="506" y="320" type="curve"/>
      <point x="472" y="286"/>
      <point x="390" y="203"/>
      <point x="338" y="203" type="curve" smooth="yes"/>
      <point x="340" y="203"/>
      <point x="307" y="239"/>
      <point x="280" y="239" type="curve" smooth="yes"/>
      <point x="273" y="239"/>
      <point x="270" y="235"/>
      <point x="270" y="234" type="curve"/>
      <point x="239" y="213"/>
      <point x="231" y="207"/>
      <point x="227" y="189" type="curve" smooth="yes"/>
      <point x="218" y="145"/>
      <point x="253" y="125"/>
    </contour>
    <contour>
      <point x="-10" y="-250" type="curve" smooth="yes"/>
      <point x="13" y="-250"/>
      <point x="45" y="-226"/>
      <point x="53" y="-208" type="curve"/>
      <point x="70" y="-220"/>
      <point x="110" y="-6"/>
      <point x="115" y="14" type="curve"/>
      <point x="133" y="-1"/>
      <point x="143" y="-8"/>
      <point x="165" y="-8" type="curve" smooth="yes"/>
      <point x="270" y="-8"/>
      <point x="347" y="111"/>
      <point x="356" y="210" type="curve" smooth="yes"/>
      <point x="364" y="277"/>
      <point x="334" y="332"/>
      <point x="270" y="331" type="curve" smooth="yes"/>
      <point x="117" y="328"/>
      <point x="85" y="206"/>
      <point x="44" y="88" type="curve" smooth="yes"/>
      <point x="36" y="68"/>
      <point x="-24" y="-201"/>
      <point x="-26" y="-224" type="curve" smooth="yes"/>
      <point x="-29" y="-259"/>
      <point x="-24" y="-250"/>
    </contour>
    <contour>
      <point x="167" y="68" type="curve" smooth="yes"/>
      <point x="153" y="68"/>
      <point x="140" y="76"/>
      <point x="129" y="84" type="curve"/>
      <point x="150" y="145"/>
      <point x="167" y="254"/>
      <point x="238" y="254" type="curve" smooth="yes"/>
      <point x="262" y="254"/>
      <point x="278" y="223"/>
      <point x="273" y="191" type="curve" smooth="yes"/>
      <point x="265" y="134"/>
      <point x="216" y="68"/>
    </contour>
  </outline>
</glyph>
<glyph name="u" format="1">
  <advance width="394.896"/>
  <unicode hex="0075"/>
  <outline>
    <contour>
      <point x="134" y="-3" type="curve" smooth="yes"/>
      <point x="200" y="-9"/>
      <point x="246" y="38"/>
      <point x="269" y="89" type="curve"/>
      <point x="264" y="72"/>
      <point x="261" y="-7"/>
      <point x="334" y="-4" type="curve" smooth="yes"/>
      <point x="419" y="-1"/>
      <point x="470" y="66"/>
      <point x="487" y="103" type="curve"/>
      <point x="485" y="117"/>
      <point x="461" y="139"/>
      <point x="444" y="139" type="curve" smooth="yes"/>
      <point x="439" y="139"/>
      <point x="434" y="135"/>
      <point x="428" y="128" type="curve" smooth="yes"/>
      <point x="421" y="120"/>
      <point x="383" y="77"/>
      <point x="355" y="80" type="curve" smooth="yes"/>
      <point x="346" y="81"/>
      <point x="337" y="87"/>
      <point x="343" y="114" type="curve" smooth="yes"/>
      <point x="354" y="166"/>
      <point x="379" y="255"/>
      <point x="392" y="292" type="curve" smooth="yes"/>
      <point x="400" y="316"/>
      <point x="389" y="331"/>
      <point x="355" y="332" type="curve" smooth="yes"/>
      <point x="330" y="333"/>
      <point x="313" y="327"/>
      <point x="299" y="283" type="curve" smooth="yes"/>
      <point x="264" y="172" type="line" smooth="yes"/>
      <point x="241" y="99"/>
      <point x="178" y="58"/>
      <point x="153" y="79" type="curve" smooth="yes"/>
      <point x="143" y="87"/>
      <point x="143" y="103"/>
      <point x="143" y="119" type="curve" smooth="yes"/>
      <point x="144" y="177"/>
      <point x="180" y="266"/>
      <point x="196" y="299" type="curve" smooth="yes"/>
      <point x="205" y="317"/>
      <point x="177" y="331"/>
      <point x="154" y="331" type="curve" smooth="yes"/>
      <point x="137" y="331"/>
      <point x="122" y="325"/>
      <point x="112" y="311" type="curve" smooth="yes"/>
      <point x="101" y="296"/>
      <point x="61" y="237"/>
      <point x="51" y="128" type="curve" smooth="yes"/>
      <point x="44" y="67"/>
      <point x="65" y="3"/>
    </contour>
    <contour>
      <point x="334" y="0" type="move" name="ogonek"/>
    </contour>
  </outline>
</glyph>
<glyph name="x" format="1">
  <advance width="326"/>
  <unicode hex="0078"/>
  <outline>
    <contour>
      <point x="379" y="263" type="curve" smooth="yes"/>
      <point x="397" y="337"/>
      <point x="301" y="360"/>
      <point x="252" y="300" type="curve" smooth="yes"/>
      <point x="141" y="154" type="line"/>
      <point x="104" y="107"/>
      <point x="77" y="83"/>
      <point x="54" y="66" type="curve" smooth="yes"/>
      <point x="3" y="32"/>
      <point x="74" y="-54"/>
      <point x="114" y="5" type="curve" smooth="yes"/>
      <point x="137" y="41"/>
      <point x="154" y="70"/>
      <point x="183" y="108" type="curve" smooth="yes"/>
      <point x="281" y="243" type="line"/>
      <point x="310" y="281"/>
      <point x="366" y="215"/>
    </contour>
    <contour>
      <point x="243" y="-6" type="curve" smooth="yes"/>
      <point x="345" y="-35"/>
      <point x="385" y="70"/>
      <point x="406" y="106" type="curve" smooth="yes"/>
      <point x="430" y="144"/>
      <point x="391" y="190"/>
      <point x="359" y="147" type="curve" smooth="yes"/>
      <point x="341" y="123"/>
      <point x="312" y="66"/>
      <point x="274" y="66" type="curve" smooth="yes"/>
      <point x="230" y="66"/>
      <point x="211" y="122"/>
      <point x="96" y="318" type="curve" smooth="yes"/>
      <point x="83" y="343"/>
      <point x="17" y="314"/>
      <point x="39" y="272" type="curve" smooth="yes"/>
      <point x="142" y="95"/>
      <point x="163" y="19"/>
    </contour>
  </outline>
</glyph>
<glyph name="bar" format="1">
  <advance width="460"/>
  <unicode hex="007C"/>
  <outline>
    <contour>
      <point x="191" y="-3" type="line"/>
      <point x="176" y="-66"/>
      <point x="254" y="-99"/>
      <point x="280" y="7" type="curve" smooth="yes"/>
      <point x="439" y="649" type="line"/>
      <point x="455" y="719"/>
      <point x="372" y="734"/>
      <point x="353" y="662" type="curve" smooth="yes"/>
    </contour>
  </outline>
</glyph>
<glyph name="braceright" format="1">
  <advance width="426"/>
  <unicode hex="007D"/>
  <outline>
    <contour>
      <point x="173" y="-115" type="curve"/>
      <point x="271" y="-109"/>
      <point x="295" y="-28"/>
      <point x="305" y="146" type="curve"/>
      <point x="308" y="193"/>
      <point x="318" y="211"/>
      <point x="355" y="211" type="curve" smooth="yes"/>
      <point x="381" y="211"/>
      <point x="397" y="219"/>
      <point x="399" y="247" type="curve" smooth="yes"/>
      <point x="401" y="270"/>
      <point x="391" y="293"/>
      <point x="371" y="294" type="curve" smooth="yes"/>
      <point x="330" y="296"/>
      <point x="326" y="312"/>
      <point x="326" y="347" type="curve" smooth="yes"/>
      <point x="326" y="403"/>
      <point x="340" y="454"/>
      <point x="340" y="504" type="curve" smooth="yes"/>
      <point x="340" y="603"/>
      <point x="291" y="650"/>
      <point x="152" y="633" type="curve" smooth="yes"/>
      <point x="121" y="630"/>
      <point x="125" y="566"/>
      <point x="162" y="569" type="curve" smooth="yes"/>
      <point x="235" y="573"/>
      <point x="245" y="555"/>
      <point x="245" y="497" type="curve" smooth="yes"/>
      <point x="245" y="448"/>
      <point x="230" y="393"/>
      <point x="230" y="338" type="curve" smooth="yes"/>
      <point x="230" y="275"/>
      <point x="295" y="245"/>
      <point x="351" y="239" type="curve"/>
      <point x="352" y="267" type="line"/>
      <point x="285" y="268"/>
      <point x="215" y="244"/>
      <point x="211" y="168" type="curve" smooth="yes"/>
      <point x="202" y="0"/>
      <point x="193" y="-41"/>
      <point x="161" y="-48" type="curve"/>
      <point x="130" y="-50"/>
      <point x="98" y="-38"/>
      <point x="78" y="-33" type="curve" smooth="yes"/>
      <point x="41" y="-19"/>
      <point x="28" y="-75"/>
      <point x="53" y="-89" type="curve" smooth="yes"/>
      <point x="80" y="-105"/>
      <point x="126" y="-120"/>
    </contour>
  </outline>
</glyph>
<glyph name="brokenbar" format="1">
  <advance width="350"/>
  <unicode hex="00A6"/>
  <outline>
    <contour>
      <point x="133" y="-61" type="curve" smooth="yes"/>
      <point x="164" y="-61"/>
      <point x="194" y="-54"/>
      <point x="199" y="-23" type="curve" smooth="yes"/>
      <point x="222" y="116"/>
      <point x="231" y="214"/>
      <point x="231" y="200" type="curve" smooth="yes"/>
      <point x="231" y="231"/>
      <point x="214" y="262"/>
      <point x="182" y="262" type="curve" smooth="yes"/>
      <point x="149" y="262"/>
      <point x="134" y="236"/>
      <point x="131" y="209" type="curve" smooth="yes"/>
      <point x="120" y="138"/>
      <point x="98" y="76"/>
      <point x="98" y="0" type="curve" smooth="yes"/>
      <point x="98" y="-19"/>
      <point x="109" y="-61"/>
    </contour>
    <contour>
      <point x="210" y="315" type="curve" smooth="yes"/>
      <point x="241" y="315"/>
      <point x="254" y="345"/>
      <point x="257" y="371" type="curve" smooth="yes"/>
      <point x="263" y="431"/>
      <point x="282" y="503"/>
      <point x="282" y="570" type="curve" smooth="yes"/>
      <point x="282" y="603"/>
      <point x="271" y="640"/>
      <point x="236" y="640" type="curve" smooth="yes"/>
      <point x="210" y="640"/>
      <point x="195" y="614"/>
      <point x="189" y="593" type="curve" smooth="yes"/>
      <point x="172" y="513"/>
      <point x="159" y="390"/>
      <point x="159" y="381" type="curve" smooth="yes"/>
      <point x="159" y="344"/>
      <point x="179" y="315"/>
    </contour>
  </outline>
</glyph>
<glyph name="dieresis" format="1">
  <advance width="350"/>
  <unicode hex="00A8"/>
  <outline>
    <contour>
      <point x="5" y="372" type="curve" smooth="yes"/>
      <point x="21" y="372"/>
      <point x="56" y="384"/>
      <point x="56" y="420" type="curve" smooth="yes"/>
      <point x="56" y="442"/>
      <point x="51" y="458"/>
      <point x="12" y="458" type="curve" smooth="yes"/>
      <point x="-2" y="458"/>
      <point x="-37" y="446"/>
      <point x="-37" y="410" type="curve" smooth="yes"/>
      <point x="-37" y="387"/>
      <point x="-31" y="372"/>
    </contour>
    <contour>
      <point x="189" y="372" type="curve" smooth="yes"/>
      <point x="204" y="372"/>
      <point x="241" y="384"/>
      <point x="241" y="420" type="curve" smooth="yes"/>
      <point x="241" y="442"/>
      <point x="234" y="458"/>
      <point x="196" y="458" type="curve" smooth="yes"/>
      <point x="182" y="458"/>
      <point x="147" y="446"/>
      <point x="147" y="410" type="curve" smooth="yes"/>
      <point x="147" y="387"/>
      <point x="153" y="372"/>
    </contour>
  </outline>
</glyph>
<glyph name="macron" format="1">
  <advance width="205"/>
  <unicode hex="00AF"/>
  <outline>
    <contour>
      <point x="-26" y="597" type="curve" smooth="yes"/>
      <point x="46" y="613"/>
      <point x="-6" y="621"/>
      <point x="204" y="606" type="curve" smooth="yes"/>
      <point x="233" y="604"/>
      <point x="242" y="607"/>
      <point x="247" y="624" type="curve" smooth="yes"/>
      <point x="254" y="653"/>
      <point x="234" y="662"/>
      <point x="218" y="669" type="curve"/>
      <point x="35" y="694"/>
      <point x="36" y="699"/>
      <point x="-17" y="683" type="curve" smooth="yes"/>
      <point x="-62" y="668"/>
      <point x="-68" y="647"/>
      <point x="-66" y="629" type="curve" smooth="yes"/>
      <point x="-66" y="610"/>
      <point x="-49" y="590"/>
    </contour>
  </outline>
</glyph>
<glyph name="plusminus" format="1">
  <advance width="514"/>
  <unicode hex="00B1"/>
  <outline>
    <contour>
      <point x="263" y="83" type="curve" smooth="yes"/>
      <point x="288" y="83"/>
      <point x="300" y="108"/>
      <point x="300" y="133" type="curve" smooth="yes"/>
      <point x="300" y="205" type="line"/>
      <point x="375" y="205" type="line"/>
      <point x="399" y="205"/>
      <point x="419" y="221"/>
      <point x="419" y="247" type="curve" smooth="yes"/>
      <point x="419" y="266"/>
      <point x="403" y="279"/>
      <point x="381" y="279" type="curve" smooth="yes"/>
      <point x="300" y="279" type="line"/>
      <point x="300" y="359" type="line"/>
      <point x="300" y="381"/>
      <point x="287" y="398"/>
      <point x="267" y="398" type="curve" smooth="yes"/>
      <point x="243" y="398"/>
      <point x="226" y="377"/>
      <point x="226" y="353" type="curve" smooth="yes"/>
      <point x="226" y="279" type="line"/>
      <point x="155" y="279" type="line"/>
      <point x="130" y="279"/>
      <point x="105" y="267"/>
      <point x="105" y="242" type="curve" smooth="yes"/>
      <point x="105" y="215"/>
      <point x="129" y="205"/>
      <point x="153" y="205" type="curve" smooth="yes"/>
      <point x="226" y="205" type="line"/>
      <point x="226" y="132" type="line"/>
      <point x="226" y="106"/>
      <point x="236" y="83"/>
    </contour>
    <contour>
      <point x="188" y="-55" type="curve" smooth="yes"/>
      <point x="189" y="-55"/>
      <point x="39" y="-67"/>
      <point x="317" y="-60" type="curve" smooth="yes"/>
      <point x="342" y="-59"/>
      <point x="357" y="-40"/>
      <point x="357" y="-18" type="curve" smooth="yes"/>
      <point x="357" y="-1"/>
      <point x="344" y="12"/>
      <point x="318" y="12" type="curve" smooth="yes"/>
      <point x="190" y="20" type="line"/>
      <point x="164" y="20"/>
      <point x="155" y="0"/>
      <point x="155" y="-18" type="curve" smooth="yes"/>
      <point x="155" y="-36"/>
      <point x="166" y="-55"/>
    </contour>
  </outline>
</glyph>
<glyph name="threequarters" format="1">
  <advance width="1102"/>
  <unicode hex="00BE"/>
  <outline>
    <contour>
      <point x="834" y="-21" type="curve" smooth="yes"/>
      <point x="862" y="-21"/>
      <point x="876" y="-18"/>
      <point x="887" y="32" type="curve" smooth="yes"/>
      <point x="897" y="61" type="line"/>
      <point x="886" y="61"/>
      <point x="962" y="63"/>
      <point x="949" y="63" type="curve"/>
      <point x="993" y="64"/>
      <point x="1002" y="143"/>
      <point x="961" y="142" type="curve" smooth="yes"/>
      <point x="967" y="142"/>
      <point x="878" y="143"/>
      <point x="913" y="143" type="curve"/>
      <point x="923" y="180"/>
      <point x="945" y="265"/>
      <point x="949" y="289" type="curve" smooth="yes"/>
      <point x="955" y="311"/>
      <point x="933" y="316"/>
      <point x="915" y="316" type="curve" smooth="yes"/>
      <point x="887" y="316"/>
      <point x="871" y="302"/>
      <point x="864" y="277" type="curve" smooth="yes"/>
      <point x="857" y="254"/>
      <point x="830" y="170"/>
      <point x="825" y="143" type="curve"/>
      <point x="833" y="143"/>
      <point x="744" y="143"/>
      <point x="749" y="143" type="curve"/>
      <point x="785" y="261"/>
      <point x="815" y="357"/>
      <point x="839" y="440" type="curve" smooth="yes"/>
      <point x="852" y="484"/>
      <point x="767" y="492"/>
      <point x="755" y="455" type="curve" smooth="yes"/>
      <point x="730" y="378"/>
      <point x="672" y="210"/>
      <point x="651" y="132" type="curve" smooth="yes"/>
      <point x="635" y="77"/>
      <point x="650" y="61"/>
      <point x="682" y="61" type="curve" smooth="yes"/>
      <point x="652" y="61"/>
      <point x="841" y="60"/>
      <point x="805" y="60" type="curve"/>
      <point x="800" y="30" type="line"/>
      <point x="793" y="1"/>
      <point x="794" y="-20"/>
    </contour>
    <contour>
      <point x="423" y="-29" type="curve" smooth="yes"/>
      <point x="680" y="575" type="line"/>
      <point x="697" y="619"/>
      <point x="630" y="661"/>
      <point x="603" y="601" type="curve" smooth="yes"/>
      <point x="348" y="15" type="line"/>
      <point x="326" y="-35"/>
      <point x="406" y="-74"/>
    </contour>
    <contour>
      <point x="354" y="350" type="curve" smooth="yes"/>
      <point x="354" y="405"/>
      <point x="317" y="459"/>
      <point x="250" y="474" type="curve"/>
      <point x="321" y="485"/>
      <point x="343" y="550"/>
      <point x="346" y="587" type="curve" smooth="yes"/>
      <point x="347" y="657"/>
      <point x="298" y="685"/>
      <point x="238" y="694" type="curve" smooth="yes"/>
      <point x="176" y="704"/>
      <point x="102" y="674"/>
      <point x="65" y="632" type="curve" smooth="yes"/>
      <point x="43" y="606"/>
      <point x="83" y="541"/>
      <point x="129" y="589" type="curve" smooth="yes"/>
      <point x="171" y="627"/>
      <point x="240" y="627"/>
      <point x="240" y="565" type="curve" smooth="yes"/>
      <point x="240" y="516"/>
      <point x="185" y="498"/>
      <point x="153" y="498" type="curve" smooth="yes"/>
      <point x="118" y="498"/>
      <point x="103" y="487"/>
      <point x="103" y="463" type="curve" smooth="yes"/>
      <point x="103" y="437"/>
      <point x="114" y="424"/>
      <point x="134" y="424" type="curve" smooth="yes"/>
      <point x="199" y="424"/>
      <point x="258" y="392"/>
      <point x="260" y="351" type="curve" smooth="yes"/>
      <point x="263" y="211"/>
      <point x="127" y="271"/>
      <point x="94" y="319" type="curve" smooth="yes"/>
      <point x="68" y="355"/>
      <point x="-13" y="308"/>
      <point x="22" y="256" type="curve" smooth="yes"/>
      <point x="66" y="198"/>
      <point x="131" y="180"/>
      <point x="197" y="183" type="curve" smooth="yes"/>
      <point x="265" y="187"/>
      <point x="354" y="220"/>
    </contour>
  </outline>
</glyph>
<glyph name="germandbls" format="1">
  <advance width="438"/>
  <unicode hex="00DF"/>
  <outline>
    <contour>
      <point x="65" y="-60" type="curve" smooth="yes"/>
      <point x="95" y="-60"/>
      <point x="119" y="-44"/>
      <point x="119" y="-13" type="curve" smooth="yes"/>
      <point x="119" y="10"/>
      <point x="119" y="31"/>
      <point x="119" y="54" type="curve" smooth="yes"/>
      <point x="119" y="221"/>
      <point x="122" y="474"/>
      <point x="286" y="474" type="curve" smooth="yes"/>
      <point x="326" y="474"/>
      <point x="359" y="458"/>
      <point x="359" y="421" type="curve" smooth="yes"/>
      <point x="359" y="360"/>
      <point x="319" y="340"/>
      <point x="256" y="340" type="curve" smooth="yes"/>
      <point x="221" y="340"/>
      <point x="215" y="328"/>
      <point x="215" y="289" type="curve" smooth="yes"/>
      <point x="215" y="267"/>
      <point x="227" y="256"/>
      <point x="243" y="250" type="curve" smooth="yes"/>
      <point x="302" y="222"/>
      <point x="347" y="242"/>
      <point x="347" y="167" type="curve" smooth="yes"/>
      <point x="347" y="93"/>
      <point x="285" y="59"/>
      <point x="216" y="75" type="curve" smooth="yes"/>
      <point x="167" y="86"/>
      <point x="155" y="83"/>
      <point x="152" y="74" type="curve" smooth="yes"/>
      <point x="145" y="42"/>
      <point x="119" y="6"/>
      <point x="234" y="-5" type="curve" smooth="yes"/>
      <point x="339" y="-17"/>
      <point x="437" y="41"/>
      <point x="437" y="155" type="curve" smooth="yes"/>
      <point x="437" y="244"/>
      <point x="364" y="296"/>
      <point x="283" y="291" type="curve"/>
      <point x="373" y="293"/>
      <point x="448" y="330"/>
      <point x="448" y="424" type="curve" smooth="yes"/>
      <point x="448" y="507"/>
      <point x="370" y="552"/>
      <point x="285" y="552" type="curve" smooth="yes"/>
      <point x="256" y="552"/>
      <point x="229" y="548"/>
      <point x="207" y="539" type="curve" smooth="yes"/>
      <point x="36" y="469"/>
      <point x="16" y="209"/>
      <point x="16" y="-23" type="curve" smooth="yes"/>
      <point x="16" y="-48"/>
      <point x="41" y="-60"/>
    </contour>
  </outline>
</glyph>
<glyph name="eth" format="1">
  <advance width="383"/>
  <unicode hex="00F0"/>
  <outline>
    <contour>
      <point x="174" y="0" type="curve" smooth="yes"/>
      <point x="316" y="-6"/>
      <point x="399" y="166"/>
      <point x="402" y="328" type="curve" smooth="yes"/>
      <point x="402" y="368"/>
      <point x="394" y="408"/>
      <point x="383" y="442" type="curve"/>
      <point x="408" y="452" type="line"/>
      <point x="428" y="461"/>
      <point x="444" y="472"/>
      <point x="444" y="494" type="curve" smooth="yes"/>
      <point x="444" y="518"/>
      <point x="431" y="538"/>
      <point x="411" y="538" type="curve" smooth="yes"/>
      <point x="401" y="538"/>
      <point x="394" y="534"/>
      <point x="388" y="532" type="curve" smooth="yes"/>
      <point x="346" y="515" type="line"/>
      <point x="319" y="554"/>
      <point x="278" y="605"/>
      <point x="181" y="605" type="curve" smooth="yes"/>
      <point x="152" y="605"/>
      <point x="118" y="594"/>
      <point x="118" y="557" type="curve" smooth="yes"/>
      <point x="118" y="536"/>
      <point x="128" y="509"/>
      <point x="148" y="509" type="curve" smooth="yes"/>
      <point x="208" y="509"/>
      <point x="233" y="492"/>
      <point x="250" y="474" type="curve"/>
      <point x="207" y="457" type="line"/>
      <point x="192" y="449"/>
      <point x="180" y="442"/>
      <point x="180" y="423" type="curve" smooth="yes"/>
      <point x="180" y="400"/>
      <point x="197" y="377"/>
      <point x="220" y="377" type="curve" smooth="yes"/>
      <point x="227" y="377"/>
      <point x="233" y="378"/>
      <point x="239" y="381" type="curve" smooth="yes"/>
      <point x="273" y="395"/>
      <point x="254" y="388"/>
      <point x="288" y="402" type="curve"/>
      <point x="292" y="378"/>
      <point x="293" y="355"/>
      <point x="293" y="339" type="curve"/>
      <point x="270" y="338"/>
      <point x="249" y="339"/>
      <point x="220" y="338" type="curve" smooth="yes"/>
      <point x="135" y="337"/>
      <point x="22" y="248"/>
      <point x="22" y="142" type="curve" smooth="yes"/>
      <point x="22" y="52"/>
      <point x="86" y="4"/>
    </contour>
    <contour>
      <point x="187" y="78" type="curve" smooth="yes"/>
      <point x="143" y="83"/>
      <point x="114" y="101"/>
      <point x="114" y="143" type="curve" smooth="yes"/>
      <point x="114" y="187"/>
      <point x="168" y="242"/>
      <point x="228" y="241" type="curve" smooth="yes"/>
      <point x="255" y="241"/>
      <point x="268" y="237"/>
      <point x="283" y="233" type="curve"/>
      <point x="261" y="189"/>
      <point x="240" y="72"/>
    </contour>
  </outline>
</glyph>
<glyph name="oslash" format="1">
  <advance width="332"/>
  <unicode hex="00F8"/>
  <outline>
    <contour>
      <point x="7" y="-60" type="curve" smooth="yes"/>
      <point x="104" y="77"/>
      <point x="235" y="241"/>
      <point x="407" y="358" type="curve" smooth="yes"/>
      <point x="428" y="373"/>
      <point x="403" y="417"/>
      <point x="372" y="395" type="curve" smooth="yes"/>
      <point x="205" y="278"/>
      <point x="81" y="101"/>
      <point x="-15" y="-30" type="curve" smooth="yes"/>
      <point x="-35" y="-57"/>
      <point x="-4" y="-76"/>
    </contour>
    <component base="o"/>
  </outline>
</glyph>
<glyph name="thorn" format="1">
  <advance width="355"/>
  <unicode hex="00FE"/>
  <outline>
    <contour>
      <point x="-15" y="-191" type="line"/>
      <point x="-23" y="-242"/>
      <point x="62" y="-243"/>
      <point x="70" y="-200" type="curve" smooth="yes"/>
      <point x="110" y="24" type="line"/>
      <point x="124" y="17"/>
      <point x="150" y="0"/>
      <point x="190" y="0" type="curve" smooth="yes"/>
      <point x="220" y="0"/>
      <point x="240" y="4"/>
      <point x="269" y="27" type="curve"/>
      <point x="308" y="28"/>
      <point x="377" y="68"/>
      <point x="428" y="118" type="curve"/>
      <point x="465" y="152"/>
      <point x="449" y="216"/>
      <point x="408" y="182" type="curve" smooth="yes"/>
      <point x="372" y="152"/>
      <point x="311" y="103"/>
      <point x="297" y="103" type="curve"/>
      <point x="321" y="128"/>
      <point x="334" y="165"/>
      <point x="330" y="221" type="curve" smooth="yes"/>
      <point x="325" y="279"/>
      <point x="300" y="329"/>
      <point x="246" y="329" type="curve" smooth="yes"/>
      <point x="197" y="329"/>
      <point x="177" y="308"/>
      <point x="158" y="290" type="curve"/>
      <point x="198" y="494" type="line"/>
      <point x="212" y="565"/>
      <point x="124" y="554"/>
      <point x="115" y="505" type="curve" smooth="yes"/>
      <point x="89" y="368"/>
      <point x="80" y="316"/>
      <point x="69" y="256" type="curve" smooth="yes"/>
    </contour>
    <contour>
      <point x="190" y="78" type="curve" smooth="yes"/>
      <point x="163" y="78"/>
      <point x="132" y="83"/>
      <point x="122" y="95" type="curve"/>
      <point x="126" y="139"/>
      <point x="136" y="249"/>
      <point x="216" y="249" type="curve" smooth="yes"/>
      <point x="246" y="249"/>
      <point x="261" y="222"/>
      <point x="261" y="186" type="curve" smooth="yes"/>
      <point x="262" y="156"/>
      <point x="229" y="78"/>
    </contour>
  </outline>
</glyph>
<glyph name="Hbar" format="1">
  <advance width="768"/>
  <unicode hex="0126"/>
  <outline>
    <contour>
      <point x="124" y="380" type="curve" smooth="yes"/>
      <point x="647" y="381" type="line"/>
      <point x="690" y="382"/>
      <point x="692" y="452"/>
      <point x="655" y="451" type="curve" smooth="yes"/>
      <point x="134" y="434" type="line"/>
      <point x="86" y="432"/>
      <point x="84" y="380"/>
    </contour>
    <component base="H"/>
  </outline>
</glyph>
<glyph name="IJ" format="1">
  <advance width="858"/>
  <unicode hex="0132"/>
  <outline>
    <contour>
      <point x="553" y="-190" type="curve" smooth="yes"/>
      <point x="706" y="-197"/>
      <point x="833" y="248"/>
      <point x="938" y="575" type="curve"/>
      <point x="955" y="574"/>
      <point x="962" y="574"/>
      <point x="958" y="576" type="curve" smooth="yes"/>
      <point x="977" y="578"/>
      <point x="975" y="579"/>
      <point x="1028" y="582" type="curve" smooth="yes"/>
      <point x="1040" y="576"/>
      <point x="1096" y="666"/>
      <point x="1023" y="667" type="curve" smooth="yes"/>
      <point x="1008" y="667"/>
      <point x="987" y="666"/>
      <point x="962" y="667" type="curve"/>
      <point x="957" y="675"/>
      <point x="941" y="686"/>
      <point x="915" y="686" type="curve" smooth="yes"/>
      <point x="896" y="686"/>
      <point x="882" y="681"/>
      <point x="873" y="667" type="curve"/>
      <point x="741" y="666"/>
      <point x="576" y="664"/>
      <point x="458" y="662" type="curve" smooth="yes"/>
      <point x="551" y="658"/>
      <point x="205" y="657"/>
      <point x="178" y="661" type="curve" smooth="yes"/>
      <point x="146" y="661"/>
      <point x="126" y="599"/>
      <point x="140" y="576" type="curve" smooth="yes"/>
      <point x="132" y="545"/>
      <point x="218" y="557"/>
      <point x="261" y="556" type="curve"/>
      <point x="204" y="446"/>
      <point x="148" y="235"/>
      <point x="132" y="67" type="curve"/>
      <point x="93" y="66"/>
      <point x="4" y="53"/>
      <point x="-5" y="23" type="curve" smooth="yes"/>
      <point x="-13" y="-4"/>
      <point x="-2" y="-26"/>
      <point x="19" y="-33" type="curve" smooth="yes"/>
      <point x="35" y="-38"/>
      <point x="190" y="-8"/>
      <point x="293" y="-4" type="curve" smooth="yes"/>
      <point x="347" y="-2"/>
      <point x="356" y="53"/>
      <point x="338" y="65" type="curve" smooth="yes"/>
      <point x="304" y="77"/>
      <point x="239" y="73"/>
      <point x="220" y="69" type="curve"/>
      <point x="221" y="180"/>
      <point x="350" y="585"/>
      <point x="352" y="557" type="curve"/>
      <point x="373" y="560"/>
      <point x="412" y="561"/>
      <point x="444" y="563" type="curve"/>
      <point x="484" y="569"/>
      <point x="673" y="577"/>
      <point x="663" y="579" type="curve" smooth="yes"/>
      <point x="646" y="580"/>
      <point x="860" y="575"/>
      <point x="845" y="575" type="curve"/>
      <point x="791" y="368"/>
      <point x="637" y="-81"/>
      <point x="545" y="-81" type="curve" smooth="yes"/>
      <point x="485" y="-81"/>
      <point x="478" y="15"/>
      <point x="472" y="130" type="curve" smooth="yes"/>
      <point x="470" y="189"/>
      <point x="399" y="194"/>
      <point x="401" y="119" type="curve" smooth="yes"/>
      <point x="403" y="-49"/>
      <point x="439" y="-185"/>
    </contour>
  </outline>
</glyph>
<glyph name="lslash" format="1">
  <advance width="263"/>
  <unicode hex="0142"/>
  <outline>
    <contour>
      <point x="198" y="105" type="line"/>
      <point x="212" y="111"/>
      <point x="218" y="122"/>
      <point x="217" y="130" type="curve" smooth="yes"/>
      <point x="216" y="145"/>
      <point x="200" y="159"/>
      <point x="185" y="159" type="curve" smooth="yes"/>
      <point x="182" y="159"/>
      <point x="178" y="159"/>
      <point x="173" y="157" type="curve" smooth="yes"/>
      <point x="43" y="103" type="line"/>
      <point x="24" y="96"/>
      <point x="16" y="83"/>
      <point x="16" y="70" type="curve" smooth="yes"/>
      <point x="16" y="57"/>
      <point x="28" y="44"/>
      <point x="42" y="44" type="curve" smooth="yes"/>
      <point x="47" y="44"/>
      <point x="54" y="44"/>
      <point x="57" y="46" type="curve" smooth="yes"/>
    </contour>
    <component base="l"/>
  </outline>
</glyph>
<glyph name="circumflex" format="1">
  <advance width="295"/>
  <unicode hex="02C6"/>
  <outline>
    <contour>
      <point x="186" y="421" type="curve"/>
      <point x="183" y="378"/>
      <point x="271" y="365"/>
      <point x="255" y="437" type="curve" smooth="yes"/>
      <point x="228" y="528" type="line"/>
      <point x="215" y="589"/>
      <point x="205" y="627"/>
      <point x="158" y="625" type="curve" smooth="yes"/>
      <point x="93" y="623"/>
      <point x="97" y="596"/>
      <point x="68" y="541" type="curve" smooth="yes"/>
      <point x="91" y="573"/>
      <point x="17" y="445"/>
      <point x="28" y="459" type="curve"/>
      <point x="23" y="452"/>
      <point x="22" y="444"/>
      <point x="23" y="436" type="curve" smooth="yes"/>
      <point x="28" y="409"/>
      <point x="76" y="403"/>
      <point x="87" y="427" type="curve" smooth="yes"/>
      <point x="84" y="424"/>
      <point x="206" y="644"/>
      <point x="148" y="560" type="curve"/>
      <point x="140" y="645"/>
      <point x="200" y="416"/>
    </contour>
  </outline>
</glyph>
<glyph name="hungarumlaut" format="1">
  <advance width="350"/>
  <unicode hex="02DD"/>
  <outline>
    <contour>
      <point x="95" y="380" type="curve" smooth="yes"/>
      <point x="73" y="354"/>
      <point x="213" y="571"/>
      <point x="213" y="540" type="curve"/>
      <point x="280" y="613"/>
      <point x="180" y="685"/>
      <point x="138" y="600" type="curve" smooth="yes"/>
      <point x="152" y="636"/>
      <point x="46" y="389"/>
      <point x="46" y="418" type="curve"/>
      <point x="25" y="386"/>
      <point x="75" y="352"/>
    </contour>
    <contour>
      <point x="268" y="364" type="curve" smooth="yes"/>
      <point x="247" y="340"/>
      <point x="457" y="579"/>
      <point x="436" y="555" type="curve"/>
      <point x="487" y="610"/>
      <point x="406" y="680"/>
      <point x="356" y="601" type="curve" smooth="yes"/>
      <point x="375" y="637"/>
      <point x="219" y="370"/>
      <point x="219" y="402" type="curve"/>
      <point x="193" y="370"/>
      <point x="245" y="340"/>
    </contour>
  </outline>
</glyph>
<glyph name="mu" format="1">
  <advance width="347"/>
  <unicode hex="03BC"/>
  <outline>
    <contour>
      <point x="-59" y="-103" type="line"/>
      <point x="-73" y="-165"/>
      <point x="1" y="-188"/>
      <point x="25" y="-100" type="curve" smooth="yes"/>
      <point x="54" y="5" type="line"/>
      <point x="64" y="1"/>
      <point x="75" y="-1"/>
      <point x="86" y="-3" type="curve" smooth="yes"/>
      <point x="163" y="-13"/>
      <point x="212" y="72"/>
      <point x="216" y="98" type="curve"/>
      <point x="216" y="101"/>
      <point x="212" y="55"/>
      <point x="211" y="59" type="curve"/>
      <point x="211" y="7"/>
      <point x="233" y="-7"/>
      <point x="281" y="-4" type="curve" smooth="yes"/>
      <point x="327" y="0"/>
      <point x="423" y="54"/>
      <point x="447" y="101" type="curve"/>
      <point x="445" y="115"/>
      <point x="413" y="139"/>
      <point x="396" y="139" type="curve" smooth="yes"/>
      <point x="389" y="139"/>
      <point x="392" y="136"/>
      <point x="383" y="132" type="curve" smooth="yes"/>
      <point x="375" y="126"/>
      <point x="333" y="82"/>
      <point x="305" y="80" type="curve" smooth="yes"/>
      <point x="301" y="80"/>
      <point x="297" y="81"/>
      <point x="299" y="99" type="curve" smooth="yes"/>
      <point x="309" y="182"/>
      <point x="330" y="265"/>
      <point x="340" y="292" type="curve" smooth="yes"/>
      <point x="344" y="314"/>
      <point x="318" y="334"/>
      <point x="297" y="332" type="curve" smooth="yes"/>
      <point x="270" y="331"/>
      <point x="261" y="327"/>
      <point x="244" y="276" type="curve" smooth="yes"/>
      <point x="221" y="191" type="line"/>
      <point x="196" y="108"/>
      <point x="135" y="62"/>
      <point x="105" y="79" type="curve" smooth="yes"/>
      <point x="100" y="85"/>
      <point x="93" y="102"/>
      <point x="95" y="125" type="curve" smooth="yes"/>
      <point x="102" y="222"/>
      <point x="161" y="315"/>
      <point x="147" y="299" type="curve" smooth="yes"/>
      <point x="148" y="317"/>
      <point x="129" y="331"/>
      <point x="106" y="331" type="curve" smooth="yes"/>
      <point x="89" y="331"/>
      <point x="76" y="325"/>
      <point x="66" y="311" type="curve" smooth="yes"/>
      <point x="64" y="314"/>
      <point x="40" y="265"/>
      <point x="23" y="194" type="curve" smooth="yes"/>
    </contour>
  </outline>
</glyph>
<glyph name="pi" format="1">
  <advance width="605"/>
  <unicode hex="03C0"/>
  <outline>
    <contour>
      <point x="314" y="423" type="curve" smooth="yes"/>
      <point x="202" y="423"/>
      <point x="109" y="378"/>
      <point x="118" y="248" type="curve" smooth="yes"/>
      <point x="118" y="210"/>
      <point x="179" y="197"/>
      <point x="188" y="234" type="curve" smooth="yes"/>
      <point x="199" y="310"/>
      <point x="215" y="335"/>
      <point x="266" y="340" type="curve"/>
      <point x="213" y="184"/>
      <point x="169" y="61"/>
      <point x="170" y="26" type="curve" smooth="yes"/>
      <point x="172" y="4"/>
      <point x="181" y="-22"/>
      <point x="214" y="-22" type="curve" smooth="yes"/>
      <point x="246" y="-22"/>
      <point x="300" y="83"/>
      <point x="263" y="32" type="curve"/>
      <point x="279" y="113"/>
      <point x="318" y="209"/>
      <point x="345" y="338" type="curve"/>
      <point x="377" y="336"/>
      <point x="390" y="333"/>
      <point x="431" y="329" type="curve"/>
      <point x="365" y="-68"/>
      <point x="412" y="-41"/>
      <point x="476" y="-20" type="curve" smooth="yes"/>
      <point x="539" y="-3"/>
      <point x="469" y="17"/>
      <point x="510" y="324" type="curve"/>
      <point x="529" y="322"/>
      <point x="549" y="323"/>
      <point x="569" y="323" type="curve" smooth="yes"/>
      <point x="652" y="323"/>
      <point x="658" y="401"/>
      <point x="658" y="362" type="curve"/>
      <point x="660" y="387"/>
      <point x="640" y="409"/>
      <point x="616" y="407" type="curve"/>
      <point x="482" y="407"/>
      <point x="419" y="423"/>
    </contour>
  </outline>
</glyph>
<glyph name="quotesinglbase" format="1">
  <advance width="307.996"/>
  <unicode hex="201A"/>
  <outline>
    <contour>
      <point x="122" y="-100"/>
      <point x="123" y="-114"/>
      <point x="145" y="-116" type="curve" smooth="yes"/>
      <point x="165" y="-118"/>
      <point x="176" y="-109"/>
      <point x="182" y="-90" type="curve" smooth="yes"/>
      <point x="188" y="-71"/>
      <point x="229" y="56"/>
      <point x="241" y="97" type="curve" smooth="yes"/>
      <point x="249" y="125"/>
      <point x="232" y="137"/>
      <point x="209" y="139" type="curve" smooth="yes"/>
      <point x="183" y="141"/>
      <point x="158" y="137"/>
      <point x="152" y="104" type="curve" smooth="yes"/>
      <point x="145" y="65"/>
      <point x="130" y="-28"/>
      <point x="124" y="-80" type="curve" smooth="yes"/>
    </contour>
  </outline>
</glyph>
<glyph name="dagger" format="1">
  <advance width="394"/>
  <unicode hex="2020"/>
  <outline>
    <contour>
      <point x="175" y="-100" type="curve" smooth="yes"/>
      <point x="233" y="-100"/>
      <point x="237" y="-59"/>
      <point x="301" y="200" type="curve"/>
      <point x="316" y="273" type="line"/>
      <point x="396" y="273" type="line"/>
      <point x="421" y="273"/>
      <point x="440" y="281"/>
      <point x="440" y="306" type="curve" smooth="yes"/>
      <point x="440" y="324"/>
      <point x="424" y="337"/>
      <point x="402" y="337" type="curve" smooth="yes"/>
      <point x="328" y="337" type="line"/>
      <point x="350" y="430"/>
      <point x="364" y="464"/>
      <point x="359" y="500" type="curve" smooth="yes"/>
      <point x="356" y="507"/>
      <point x="349" y="522"/>
      <point x="329" y="521" type="curve" smooth="yes"/>
      <point x="267" y="518"/>
      <point x="271" y="482"/>
      <point x="234" y="337" type="curve"/>
      <point x="161" y="337" type="line"/>
      <point x="136" y="337"/>
      <point x="115" y="324"/>
      <point x="115" y="303" type="curve" smooth="yes"/>
      <point x="115" y="282"/>
      <point x="134" y="273"/>
      <point x="158" y="273" type="curve" smooth="yes"/>
      <point x="218" y="273" type="line"/>
      <point x="151" y="-1"/>
      <point x="142" y="-25"/>
      <point x="142" y="-53" type="curve" smooth="yes"/>
      <point x="142" y="-77"/>
      <point x="147" y="-100"/>
    </contour>
  </outline>
</glyph>
<glyph name="daggerdbl" format="1">
  <advance width="394"/>
  <unicode hex="2021"/>
  <outline>
    <contour>
      <point x="178" y="-100" type="curve" smooth="yes"/>
      <point x="236" y="-100"/>
      <point x="237" y="-56"/>
      <point x="282" y="121" type="curve"/>
      <point x="363" y="121" type="line"/>
      <point x="388" y="121"/>
      <point x="407" y="128"/>
      <point x="407" y="153" type="curve" smooth="yes"/>
      <point x="407" y="171"/>
      <point x="393" y="184"/>
      <point x="369" y="184" type="curve" smooth="yes"/>
      <point x="295" y="184" type="line"/>
      <point x="316" y="273" type="line"/>
      <point x="396" y="273" type="line"/>
      <point x="421" y="273"/>
      <point x="440" y="281"/>
      <point x="440" y="306" type="curve" smooth="yes"/>
      <point x="440" y="324"/>
      <point x="424" y="337"/>
      <point x="402" y="337" type="curve" smooth="yes"/>
      <point x="328" y="337" type="line"/>
      <point x="349" y="421"/>
      <point x="359" y="453"/>
      <point x="359" y="489" type="curve" smooth="yes"/>
      <point x="359" y="504"/>
      <point x="353" y="521"/>
      <point x="329" y="521" type="curve" smooth="yes"/>
      <point x="268" y="521"/>
      <point x="271" y="482"/>
      <point x="234" y="337" type="curve"/>
      <point x="161" y="337" type="line"/>
      <point x="136" y="337"/>
      <point x="115" y="324"/>
      <point x="115" y="303" type="curve" smooth="yes"/>
      <point x="115" y="282"/>
      <point x="134" y="273"/>
      <point x="158" y="273" type="curve" smooth="yes"/>
      <point x="218" y="273" type="line"/>
      <point x="198" y="184" type="line"/>
      <point x="128" y="184" type="line"/>
      <point x="103" y="184"/>
      <point x="83" y="171"/>
      <point x="83" y="150" type="curve" smooth="yes"/>
      <point x="83" y="129"/>
      <point x="101" y="121"/>
      <point x="125" y="121" type="curve" smooth="yes"/>
      <point x="181" y="121" type="line"/>
      <point x="153" y="-1"/>
      <point x="144" y="-25"/>
      <point x="145" y="-53" type="curve" smooth="yes"/>
      <point x="145" y="-77"/>
      <point x="150" y="-100"/>
    </contour>
  </outline>
</glyph>
<glyph name="ellipsis" format="1">
  <advance width="671"/>
  <unicode hex="2026"/>
  <outline>
    <contour>
      <point x="207" y="0" type="curve" smooth="yes"/>
      <point x="247" y="0"/>
      <point x="270" y="26"/>
      <point x="270" y="65" type="curve" smooth="yes"/>
      <point x="270" y="102"/>
      <point x="250" y="121"/>
      <point x="213" y="121" type="curve" smooth="yes"/>
      <point x="173" y="121"/>
      <point x="150" y="94"/>
      <point x="150" y="55" type="curve" smooth="yes"/>
      <point x="150" y="19"/>
      <point x="170" y="0"/>
    </contour>
    <contour>
      <point x="389" y="0" type="curve" smooth="yes"/>
      <point x="429" y="0"/>
      <point x="453" y="26"/>
      <point x="453" y="65" type="curve" smooth="yes"/>
      <point x="453" y="102"/>
      <point x="432" y="121"/>
      <point x="395" y="121" type="curve" smooth="yes"/>
      <point x="355" y="121"/>
      <point x="332" y="94"/>
      <point x="332" y="55" type="curve" smooth="yes"/>
      <point x="332" y="19"/>
      <point x="352" y="0"/>
    </contour>
    <contour>
      <point x="569" y="0" type="curve" smooth="yes"/>
      <point x="609" y="0"/>
      <point x="633" y="26"/>
      <point x="633" y="65" type="curve" smooth="yes"/>
      <point x="633" y="102"/>
      <point x="612" y="121"/>
      <point x="575" y="121" type="curve" smooth="yes"/>
      <point x="535" y="121"/>
      <point x="513" y="94"/>
      <point x="513" y="55" type="curve" smooth="yes"/>
      <point x="513" y="19"/>
      <point x="533" y="0"/>
    </contour>
  </outline>
</glyph>
<glyph name="guilsinglleft" format="1">
  <advance width="432"/>
  <unicode hex="2039"/>
  <outline>
    <contour>
      <point x="352" y="0"/>
      <point x="380" y="16"/>
      <point x="390" y="50" type="curve" smooth="yes"/>
      <point x="400" y="85"/>
      <point x="376" y="96"/>
      <point x="334" y="118" type="curve" smooth="yes"/>
      <point x="180" y="200" type="line"/>
      <point x="377" y="262" type="line" smooth="yes"/>
      <point x="407" y="271"/>
      <point x="419" y="286"/>
      <point x="413" y="314" type="curve" smooth="yes"/>
      <point x="404" y="354"/>
      <point x="389" y="360"/>
      <point x="342" y="346" type="curve" smooth="yes"/>
      <point x="152" y="288" type="line" smooth="yes"/>
      <point x="115" y="277"/>
      <point x="88" y="248"/>
      <point x="88" y="193" type="curve" smooth="yes"/>
      <point x="88" y="162"/>
      <point x="101" y="137"/>
      <point x="136" y="118" type="curve" smooth="yes"/>
      <point x="310" y="23" type="line" smooth="yes"/>
    </contour>
  </outline>
</glyph>
<glyph name="Euro" format="1">
  <advance width="634"/>
  <unicode hex="20AC"/>
  <outline>
    <contour>
      <point x="299" y="-69" type="curve" smooth="yes"/>
      <point x="415" y="-84"/>
      <point x="506" y="-4"/>
      <point x="569" y="49" type="curve" smooth="yes"/>
      <point x="573" y="53"/>
      <point x="584" y="63"/>
      <point x="586" y="80" type="curve" smooth="yes"/>
      <point x="589" y="109"/>
      <point x="551" y="143"/>
      <point x="526" y="119" type="curve" smooth="yes"/>
      <point x="476" y="79"/>
      <point x="403" y="38"/>
      <point x="322" y="38" type="curve" smooth="yes"/>
      <point x="246" y="38"/>
      <point x="202" y="85"/>
      <point x="202" y="161" type="curve"/>
      <point x="202" y="156"/>
      <point x="202" y="168"/>
      <point x="202" y="167" type="curve"/>
      <point x="323" y="167" type="line"/>
      <point x="357" y="167"/>
      <point x="377" y="184"/>
      <point x="377" y="215" type="curve" smooth="yes"/>
      <point x="377" y="238"/>
      <point x="357" y="250"/>
      <point x="334" y="250" type="curve" smooth="yes"/>
      <point x="214" y="250" type="line"/>
      <point x="218" y="260"/>
      <point x="221" y="269"/>
      <point x="222" y="275" type="curve"/>
      <point x="345" y="275" type="line"/>
      <point x="379" y="275"/>
      <point x="401" y="292"/>
      <point x="401" y="324" type="curve" smooth="yes"/>
      <point x="401" y="349"/>
      <point x="379" y="359"/>
      <point x="356" y="359" type="curve" smooth="yes"/>
      <point x="253" y="359" type="line"/>
      <point x="276" y="413"/>
      <point x="306" y="521"/>
      <point x="426" y="519" type="curve" smooth="yes"/>
      <point x="472" y="518"/>
      <point x="500" y="508"/>
      <point x="500" y="467" type="curve" smooth="yes"/>
      <point x="500" y="433"/>
      <point x="477" y="403"/>
      <point x="477" y="371" type="curve" smooth="yes"/>
      <point x="477" y="329"/>
      <point x="543" y="314"/>
      <point x="563" y="348" type="curve" smooth="yes"/>
      <point x="583" y="380"/>
      <point x="603" y="424"/>
      <point x="603" y="472" type="curve" smooth="yes"/>
      <point x="603" y="568"/>
      <point x="538" y="613"/>
      <point x="439" y="613" type="curve" smooth="yes"/>
      <point x="272" y="613"/>
      <point x="178" y="469"/>
      <point x="127" y="359" type="curve"/>
      <point x="88" y="359" type="line"/>
      <point x="62" y="359"/>
      <point x="47" y="349"/>
      <point x="48" y="324" type="curve" smooth="yes"/>
      <point x="50" y="297"/>
      <point x="60" y="275"/>
      <point x="89" y="275" type="curve" smooth="yes"/>
      <point x="97" y="275" type="line"/>
      <point x="95" y="266"/>
      <point x="95" y="257"/>
      <point x="92" y="250" type="curve"/>
      <point x="67" y="250" type="line"/>
      <point x="39" y="250"/>
      <point x="25" y="237"/>
      <point x="26" y="212" type="curve" smooth="yes"/>
      <point x="28" y="187"/>
      <point x="37" y="167"/>
      <point x="69" y="167" type="curve" smooth="yes"/>
      <point x="82" y="167" type="line"/>
      <point x="82" y="165" type="line"/>
      <point x="82" y="21"/>
      <point x="166" y="-53"/>
    </contour>
  </outline>
</glyph>
<glyph name="greaterequal" format="1">
  <advance width="579"/>
  <unicode hex="2265"/>
  <outline>
    <contour>
      <point x="142" y="-4"/>
      <point x="156" y="-19"/>
      <point x="188" y="-19" type="curve" smooth="yes"/>
      <point x="424" y="-19" type="line" smooth="yes"/>
      <point x="467" y="-19"/>
      <point x="476" y="-4"/>
      <point x="472" y="27" type="curve" smooth="yes"/>
      <point x="469" y="53"/>
      <point x="451" y="57"/>
      <point x="430" y="57" type="curve" smooth="yes"/>
      <point x="203" y="57" type="line" smooth="yes"/>
      <point x="169" y="57"/>
      <point x="151" y="55"/>
      <point x="146" y="23" type="curve" smooth="yes"/>
    </contour>
    <component base="greater" xOffset="111" yOffset="58"/>
  </outline>
</glyph>
